<svg width="132" height="25" xmlns="http://www.w3.org/2000/svg"><g fill="none" fill-rule="evenodd"><path d="M100.343 23h-4.09v-1.885c-1.12 1.411-2.508 2.117-4.16 2.117-1.654 0-3.04-.478-4.162-1.435-1.121-.958-1.682-2.233-1.682-3.829 0-1.595.58-2.788 1.74-3.581 1.16-.793 2.745-1.189 4.756-1.189h3.248v-.087c0-1.663-.88-2.494-2.64-2.494-.753 0-1.55.15-2.392.45-.84.3-1.551.671-2.131 1.116L86.887 9.37c2.05-1.489 4.389-2.233 7.018-2.233 1.895 0 3.441.474 4.64 1.421 1.199.947 1.798 2.446 1.798 4.495V23zm-4.38-5.945v-.754h-2.725c-1.74 0-2.61.541-2.61 1.624 0 .56.208.99.623 1.29.416.3 1.01.45 1.784.45a3.17 3.17 0 0 0 2.044-.71c.59-.474.885-1.107.885-1.9zM107.866 23l-6.177-15.631h4.524l3.886 9.831 3.886-9.831h4.524L112.33 23h-4.466zm23.82-4.843c0 1.527-.566 2.755-1.697 3.683-1.13.928-2.566 1.392-4.306 1.392-1.16 0-2.369-.208-3.625-.623a10.697 10.697 0 0 1-3.393-1.842l1.914-2.726c1.624 1.257 3.354 1.885 5.19 1.885.561 0 1.006-.111 1.335-.333.328-.223.493-.518.493-.885s-.228-.706-.682-1.015c-.454-.31-1.112-.6-1.972-.87-.86-.27-1.518-.503-1.972-.696a11.095 11.095 0 0 1-1.551-.841c-1.18-.735-1.77-1.822-1.77-3.262s.58-2.615 1.74-3.524c1.16-.909 2.659-1.363 4.496-1.363 1.836 0 3.673.619 5.51 1.856l-1.624 2.9c-1.354-.928-2.702-1.392-4.046-1.392-1.344 0-2.015.367-2.015 1.102 0 .406.212.725.638.957.425.232 1.13.503 2.117.812.986.31 1.686.546 2.102.71.416.165.914.421 1.494.769 1.082.657 1.624 1.76 1.624 3.306zM77.008 12.64H74V9h3.095v-.977c0-4.484 2.112-6.046 6.276-6.046 1.13 0 1.998.174 2.663.29l-.32 3.587c-.433-.145-.866-.234-1.65-.234-1.33 0-1.848.926-1.848 2.403V9h3.77v3.64h-3.77v11.38h-5.208" fill="#E1156A"/><path d="M3.008 11.64H0V8h3.095v-.977c0-4.484 2.112-6.046 6.276-6.046 1.13 0 1.998.174 2.663.29l-.32 3.587c-.433-.145-.866-.234-1.65-.234-1.33 0-1.848.926-1.848 2.403V8h3.77v3.64h-3.77v11.38H3.008V11.64zM14 1.32h5.21v21.7H14V1.32zm7.808.348h5.205v3.82h-5.205v-3.82zm0 6.316h5.205v15.034h-5.205V7.984zm19.328 4.272c-.956-.577-1.908-.836-3.15-.836-2.26 0-3.994 1.563-3.994 4.165 0 2.398 2.024 3.96 4.28 3.96 1.187 0 2.372-.258 3.24-.72l.117 3.875c-1.302.433-2.864.666-4.255.666-4.974 0-8.763-2.894-8.763-7.87 0-5.006 3.79-7.897 8.763-7.897 1.563 0 2.952.262 4.138.84l-.377 3.816.001.001zM43.798 1.32h5.206v12.962h.057l4.34-6.334h5.698l-5.234 6.916 5.668 8.155h-6.306l-4.166-7.465h-.057v7.464h-5.206v-21.7.002zm27.947 10.793c-.578-.175-1.154-.175-1.763-.175-2.43 0-3.792 1.767-3.792 4.718v6.363h-5.203V7.947h4.743v2.777h.056c.898-1.91 2.2-3.125 4.457-3.125.607 0 1.245.085 1.763.174l-.26 4.34h-.001z" fill="#FFF" fill-rule="nonzero"/></g></svg>
